<mxfile host="app.diagrams.net" modified="2024-01-08T11:21:05.796Z" agent="Mozilla/5.0 (Windows NT 10.0; Win64; x64) AppleWebKit/537.36 (KHTML, like Gecko) Chrome/120.0.0.0 Safari/537.36" etag="P_IeH2ef9-9pkTUKAaVS" version="22.1.17" type="device">
  <diagram name="Pagina-1" id="g0dOfUUXygPQ9sI4fLri">
    <mxGraphModel dx="1290" dy="522" grid="1" gridSize="10" guides="1" tooltips="1" connect="1" arrows="1" fold="1" page="1" pageScale="1" pageWidth="1169" pageHeight="827" math="0" shadow="0">
      <root>
        <mxCell id="0" />
        <mxCell id="1" parent="0" />
        <mxCell id="Sc3b0XzNrHB7zEq938ID-2" value="ID" style="ellipse;whiteSpace=wrap;html=1;" vertex="1" parent="1">
          <mxGeometry x="10" y="170" width="70" height="40" as="geometry" />
        </mxCell>
        <mxCell id="Sc3b0XzNrHB7zEq938ID-4" value="Geslacht" style="ellipse;whiteSpace=wrap;html=1;" vertex="1" parent="1">
          <mxGeometry x="120" y="10" width="70" height="40" as="geometry" />
        </mxCell>
        <mxCell id="Sc3b0XzNrHB7zEq938ID-5" value="E-Mail" style="ellipse;whiteSpace=wrap;html=1;" vertex="1" parent="1">
          <mxGeometry x="230" y="10" width="70" height="40" as="geometry" />
        </mxCell>
        <mxCell id="Sc3b0XzNrHB7zEq938ID-6" value="Voornaam" style="ellipse;whiteSpace=wrap;html=1;" vertex="1" parent="1">
          <mxGeometry x="80" y="170" width="80" height="40" as="geometry" />
        </mxCell>
        <mxCell id="Sc3b0XzNrHB7zEq938ID-7" value="Tussenvoegsels" style="ellipse;whiteSpace=wrap;html=1;" vertex="1" parent="1">
          <mxGeometry x="160" y="170" width="110" height="40" as="geometry" />
        </mxCell>
        <mxCell id="Sc3b0XzNrHB7zEq938ID-8" value="Gebruikersnaam" style="ellipse;whiteSpace=wrap;html=1;" vertex="1" parent="1">
          <mxGeometry x="5" y="110" width="110" height="40" as="geometry" />
        </mxCell>
        <mxCell id="Sc3b0XzNrHB7zEq938ID-9" value="Achternaam" style="ellipse;whiteSpace=wrap;html=1;" vertex="1" parent="1">
          <mxGeometry x="270" y="170" width="80" height="40" as="geometry" />
        </mxCell>
        <mxCell id="Sc3b0XzNrHB7zEq938ID-10" value="Wachtwoord" style="ellipse;whiteSpace=wrap;html=1;" vertex="1" parent="1">
          <mxGeometry x="20" y="60" width="80" height="40" as="geometry" />
        </mxCell>
        <mxCell id="Sc3b0XzNrHB7zEq938ID-11" value="Rol" style="ellipse;whiteSpace=wrap;html=1;" vertex="1" parent="1">
          <mxGeometry x="10" y="10" width="70" height="40" as="geometry" />
        </mxCell>
        <mxCell id="Sc3b0XzNrHB7zEq938ID-12" value="Adres" style="rounded=1;whiteSpace=wrap;html=1;fontStyle=1" vertex="1" parent="1">
          <mxGeometry x="800" y="95" width="120" height="60" as="geometry" />
        </mxCell>
        <mxCell id="Sc3b0XzNrHB7zEq938ID-13" value="" style="endArrow=none;html=1;rounded=0;entryX=0.5;entryY=1;entryDx=0;entryDy=0;exitX=0.5;exitY=0;exitDx=0;exitDy=0;" edge="1" parent="1" source="Sc3b0XzNrHB7zEq938ID-1" target="Sc3b0XzNrHB7zEq938ID-5">
          <mxGeometry width="50" height="50" relative="1" as="geometry">
            <mxPoint x="560" y="300" as="sourcePoint" />
            <mxPoint x="610" y="250" as="targetPoint" />
          </mxGeometry>
        </mxCell>
        <mxCell id="Sc3b0XzNrHB7zEq938ID-14" value="" style="endArrow=none;html=1;rounded=0;entryX=0.5;entryY=1;entryDx=0;entryDy=0;exitX=0.14;exitY=0.013;exitDx=0;exitDy=0;exitPerimeter=0;" edge="1" parent="1" source="Sc3b0XzNrHB7zEq938ID-1" target="Sc3b0XzNrHB7zEq938ID-4">
          <mxGeometry width="50" height="50" relative="1" as="geometry">
            <mxPoint x="260" y="80" as="sourcePoint" />
            <mxPoint x="275" y="60" as="targetPoint" />
          </mxGeometry>
        </mxCell>
        <mxCell id="Sc3b0XzNrHB7zEq938ID-15" value="" style="endArrow=none;html=1;rounded=0;entryX=1;entryY=0.5;entryDx=0;entryDy=0;exitX=0;exitY=0.25;exitDx=0;exitDy=0;" edge="1" parent="1" source="Sc3b0XzNrHB7zEq938ID-1" target="Sc3b0XzNrHB7zEq938ID-11">
          <mxGeometry width="50" height="50" relative="1" as="geometry">
            <mxPoint x="145" y="100" as="sourcePoint" />
            <mxPoint x="160" y="80" as="targetPoint" />
            <Array as="points">
              <mxPoint x="150" y="70" />
            </Array>
          </mxGeometry>
        </mxCell>
        <mxCell id="Sc3b0XzNrHB7zEq938ID-16" value="" style="endArrow=none;html=1;rounded=0;entryX=1;entryY=0.5;entryDx=0;entryDy=0;exitX=0;exitY=0.5;exitDx=0;exitDy=0;" edge="1" parent="1" source="Sc3b0XzNrHB7zEq938ID-1" target="Sc3b0XzNrHB7zEq938ID-10">
          <mxGeometry width="50" height="50" relative="1" as="geometry">
            <mxPoint x="190" y="100" as="sourcePoint" />
            <mxPoint x="295" y="80" as="targetPoint" />
            <Array as="points" />
          </mxGeometry>
        </mxCell>
        <mxCell id="Sc3b0XzNrHB7zEq938ID-17" value="" style="endArrow=none;html=1;rounded=0;entryX=0;entryY=0.75;entryDx=0;entryDy=0;exitX=1;exitY=0.5;exitDx=0;exitDy=0;" edge="1" parent="1" source="Sc3b0XzNrHB7zEq938ID-8" target="Sc3b0XzNrHB7zEq938ID-1">
          <mxGeometry width="50" height="50" relative="1" as="geometry">
            <mxPoint x="130" y="130" as="sourcePoint" />
            <mxPoint x="145" y="110" as="targetPoint" />
          </mxGeometry>
        </mxCell>
        <mxCell id="Sc3b0XzNrHB7zEq938ID-18" value="" style="endArrow=none;html=1;rounded=0;exitX=1;exitY=0;exitDx=0;exitDy=0;entryX=0;entryY=0.75;entryDx=0;entryDy=0;" edge="1" parent="1" source="Sc3b0XzNrHB7zEq938ID-2" target="Sc3b0XzNrHB7zEq938ID-1">
          <mxGeometry width="50" height="50" relative="1" as="geometry">
            <mxPoint x="130" y="150" as="sourcePoint" />
            <mxPoint x="170" y="140" as="targetPoint" />
            <Array as="points">
              <mxPoint x="140" y="150" />
            </Array>
          </mxGeometry>
        </mxCell>
        <mxCell id="Sc3b0XzNrHB7zEq938ID-19" value="" style="endArrow=none;html=1;rounded=0;entryX=0.25;entryY=1;entryDx=0;entryDy=0;exitX=1;exitY=0;exitDx=0;exitDy=0;" edge="1" parent="1" source="Sc3b0XzNrHB7zEq938ID-6" target="Sc3b0XzNrHB7zEq938ID-1">
          <mxGeometry width="50" height="50" relative="1" as="geometry">
            <mxPoint x="310" y="130" as="sourcePoint" />
            <mxPoint x="325" y="110" as="targetPoint" />
            <Array as="points">
              <mxPoint x="200" y="150" />
            </Array>
          </mxGeometry>
        </mxCell>
        <mxCell id="Sc3b0XzNrHB7zEq938ID-20" value="" style="endArrow=none;html=1;rounded=0;entryX=0.5;entryY=1;entryDx=0;entryDy=0;exitX=0.5;exitY=0;exitDx=0;exitDy=0;" edge="1" parent="1" source="Sc3b0XzNrHB7zEq938ID-7" target="Sc3b0XzNrHB7zEq938ID-1">
          <mxGeometry width="50" height="50" relative="1" as="geometry">
            <mxPoint x="250" y="160" as="sourcePoint" />
            <mxPoint x="265" y="140" as="targetPoint" />
          </mxGeometry>
        </mxCell>
        <mxCell id="Sc3b0XzNrHB7zEq938ID-21" value="" style="endArrow=none;html=1;rounded=0;entryX=0.75;entryY=1;entryDx=0;entryDy=0;exitX=0.5;exitY=0;exitDx=0;exitDy=0;" edge="1" parent="1" source="Sc3b0XzNrHB7zEq938ID-9" target="Sc3b0XzNrHB7zEq938ID-1">
          <mxGeometry width="50" height="50" relative="1" as="geometry">
            <mxPoint x="330" y="150" as="sourcePoint" />
            <mxPoint x="345" y="130" as="targetPoint" />
            <Array as="points" />
          </mxGeometry>
        </mxCell>
        <mxCell id="Sc3b0XzNrHB7zEq938ID-22" value="Postcode" style="ellipse;whiteSpace=wrap;html=1;" vertex="1" parent="1">
          <mxGeometry x="980" y="45" width="90" height="50" as="geometry" />
        </mxCell>
        <mxCell id="Sc3b0XzNrHB7zEq938ID-23" value="Plaats" style="ellipse;whiteSpace=wrap;html=1;" vertex="1" parent="1">
          <mxGeometry x="980" y="110" width="90" height="50" as="geometry" />
        </mxCell>
        <mxCell id="Sc3b0XzNrHB7zEq938ID-24" value="Land" style="ellipse;whiteSpace=wrap;html=1;" vertex="1" parent="1">
          <mxGeometry x="960" y="170" width="90" height="50" as="geometry" />
        </mxCell>
        <mxCell id="Sc3b0XzNrHB7zEq938ID-25" value="Straatnaam" style="ellipse;whiteSpace=wrap;html=1;" vertex="1" parent="1">
          <mxGeometry x="890" y="10" width="90" height="50" as="geometry" />
        </mxCell>
        <mxCell id="Sc3b0XzNrHB7zEq938ID-26" value="Huisnummer" style="ellipse;whiteSpace=wrap;html=1;" vertex="1" parent="1">
          <mxGeometry x="780" y="10" width="90" height="50" as="geometry" />
        </mxCell>
        <mxCell id="Sc3b0XzNrHB7zEq938ID-27" value="Telefoonnummer" style="ellipse;whiteSpace=wrap;html=1;" vertex="1" parent="1">
          <mxGeometry x="840" y="190" width="100" height="50" as="geometry" />
        </mxCell>
        <mxCell id="Sc3b0XzNrHB7zEq938ID-28" value="" style="endArrow=none;html=1;rounded=0;exitX=1;exitY=0.75;exitDx=0;exitDy=0;entryX=0;entryY=0;entryDx=0;entryDy=0;" edge="1" parent="1" source="Sc3b0XzNrHB7zEq938ID-12" target="Sc3b0XzNrHB7zEq938ID-24">
          <mxGeometry width="50" height="50" relative="1" as="geometry">
            <mxPoint x="620" y="311" as="sourcePoint" />
            <mxPoint x="740" y="250" as="targetPoint" />
          </mxGeometry>
        </mxCell>
        <mxCell id="Sc3b0XzNrHB7zEq938ID-29" value="" style="endArrow=none;html=1;rounded=0;exitX=0.25;exitY=0;exitDx=0;exitDy=0;entryX=0.5;entryY=1;entryDx=0;entryDy=0;" edge="1" parent="1" source="Sc3b0XzNrHB7zEq938ID-12" target="Sc3b0XzNrHB7zEq938ID-26">
          <mxGeometry width="50" height="50" relative="1" as="geometry">
            <mxPoint x="490" y="155" as="sourcePoint" />
            <mxPoint x="610" y="94" as="targetPoint" />
          </mxGeometry>
        </mxCell>
        <mxCell id="Sc3b0XzNrHB7zEq938ID-30" value="" style="endArrow=none;html=1;rounded=0;exitX=0.5;exitY=0;exitDx=0;exitDy=0;entryX=0.5;entryY=1;entryDx=0;entryDy=0;" edge="1" parent="1" source="Sc3b0XzNrHB7zEq938ID-12" target="Sc3b0XzNrHB7zEq938ID-25">
          <mxGeometry width="50" height="50" relative="1" as="geometry">
            <mxPoint x="580" y="171" as="sourcePoint" />
            <mxPoint x="700" y="110" as="targetPoint" />
          </mxGeometry>
        </mxCell>
        <mxCell id="Sc3b0XzNrHB7zEq938ID-31" value="" style="endArrow=none;html=1;rounded=0;exitX=1;exitY=0.25;exitDx=0;exitDy=0;entryX=0;entryY=0;entryDx=0;entryDy=0;" edge="1" parent="1" source="Sc3b0XzNrHB7zEq938ID-12" target="Sc3b0XzNrHB7zEq938ID-23">
          <mxGeometry width="50" height="50" relative="1" as="geometry">
            <mxPoint x="440" y="261" as="sourcePoint" />
            <mxPoint x="560" y="200" as="targetPoint" />
          </mxGeometry>
        </mxCell>
        <mxCell id="Sc3b0XzNrHB7zEq938ID-32" value="" style="endArrow=none;html=1;rounded=0;exitX=0.75;exitY=0;exitDx=0;exitDy=0;entryX=0;entryY=0.5;entryDx=0;entryDy=0;" edge="1" parent="1" source="Sc3b0XzNrHB7zEq938ID-12" target="Sc3b0XzNrHB7zEq938ID-22">
          <mxGeometry width="50" height="50" relative="1" as="geometry">
            <mxPoint x="585" y="211" as="sourcePoint" />
            <mxPoint x="705" y="150" as="targetPoint" />
          </mxGeometry>
        </mxCell>
        <mxCell id="Sc3b0XzNrHB7zEq938ID-33" value="" style="endArrow=none;html=1;rounded=0;exitX=0.75;exitY=1;exitDx=0;exitDy=0;entryX=0.5;entryY=0;entryDx=0;entryDy=0;" edge="1" parent="1" source="Sc3b0XzNrHB7zEq938ID-12" target="Sc3b0XzNrHB7zEq938ID-27">
          <mxGeometry width="50" height="50" relative="1" as="geometry">
            <mxPoint x="930" y="150" as="sourcePoint" />
            <mxPoint x="983" y="187" as="targetPoint" />
          </mxGeometry>
        </mxCell>
        <mxCell id="Sc3b0XzNrHB7zEq938ID-34" value="Heeft" style="rhombus;whiteSpace=wrap;html=1;fontStyle=1" vertex="1" parent="1">
          <mxGeometry x="510" y="30" width="80" height="80" as="geometry" />
        </mxCell>
        <mxCell id="Sc3b0XzNrHB7zEq938ID-35" value="" style="endArrow=none;html=1;rounded=0;entryX=0;entryY=0.5;entryDx=0;entryDy=0;exitX=1;exitY=0.25;exitDx=0;exitDy=0;" edge="1" parent="1" source="Sc3b0XzNrHB7zEq938ID-1" target="Sc3b0XzNrHB7zEq938ID-34">
          <mxGeometry width="50" height="50" relative="1" as="geometry">
            <mxPoint x="225" y="180" as="sourcePoint" />
            <mxPoint x="260" y="140" as="targetPoint" />
          </mxGeometry>
        </mxCell>
        <mxCell id="Sc3b0XzNrHB7zEq938ID-36" value="" style="endArrow=none;html=1;rounded=0;entryX=0;entryY=0.5;entryDx=0;entryDy=0;exitX=1;exitY=0.5;exitDx=0;exitDy=0;" edge="1" parent="1" source="Sc3b0XzNrHB7zEq938ID-34" target="Sc3b0XzNrHB7zEq938ID-12">
          <mxGeometry width="50" height="50" relative="1" as="geometry">
            <mxPoint x="320" y="110" as="sourcePoint" />
            <mxPoint x="550" y="160" as="targetPoint" />
          </mxGeometry>
        </mxCell>
        <mxCell id="Sc3b0XzNrHB7zEq938ID-37" value="Workout" style="rounded=1;whiteSpace=wrap;html=1;fontStyle=1" vertex="1" parent="1">
          <mxGeometry x="490" y="310" width="120" height="60" as="geometry" />
        </mxCell>
        <mxCell id="Sc3b0XzNrHB7zEq938ID-38" value="Omschrijving" style="ellipse;whiteSpace=wrap;html=1;" vertex="1" parent="1">
          <mxGeometry x="350" y="370" width="90" height="50" as="geometry" />
        </mxCell>
        <mxCell id="Sc3b0XzNrHB7zEq938ID-39" value="Duur" style="ellipse;whiteSpace=wrap;html=1;" vertex="1" parent="1">
          <mxGeometry x="430" y="414" width="90" height="50" as="geometry" />
        </mxCell>
        <mxCell id="Sc3b0XzNrHB7zEq938ID-40" value="Notitie" style="ellipse;whiteSpace=wrap;html=1;fontStyle=0" vertex="1" parent="1">
          <mxGeometry x="550" y="400" width="90" height="50" as="geometry" />
        </mxCell>
        <mxCell id="Sc3b0XzNrHB7zEq938ID-41" value="Afbeelding" style="ellipse;whiteSpace=wrap;html=1;" vertex="1" parent="1">
          <mxGeometry x="650" y="360" width="90" height="50" as="geometry" />
        </mxCell>
        <mxCell id="Sc3b0XzNrHB7zEq938ID-42" value="Toevoegdatum" style="ellipse;whiteSpace=wrap;html=1;" vertex="1" parent="1">
          <mxGeometry x="350" y="300" width="90" height="50" as="geometry" />
        </mxCell>
        <mxCell id="Sc3b0XzNrHB7zEq938ID-43" value="" style="endArrow=none;html=1;rounded=0;exitX=1;exitY=0.5;exitDx=0;exitDy=0;" edge="1" parent="1" source="Sc3b0XzNrHB7zEq938ID-42">
          <mxGeometry width="50" height="50" relative="1" as="geometry">
            <mxPoint x="280" y="260" as="sourcePoint" />
            <mxPoint x="490" y="320" as="targetPoint" />
          </mxGeometry>
        </mxCell>
        <mxCell id="Sc3b0XzNrHB7zEq938ID-44" value="" style="endArrow=none;html=1;rounded=0;entryX=0.093;entryY=1.013;entryDx=0;entryDy=0;exitX=0.5;exitY=0;exitDx=0;exitDy=0;entryPerimeter=0;" edge="1" parent="1" source="Sc3b0XzNrHB7zEq938ID-39" target="Sc3b0XzNrHB7zEq938ID-37">
          <mxGeometry width="50" height="50" relative="1" as="geometry">
            <mxPoint x="220" y="375" as="sourcePoint" />
            <mxPoint x="280" y="400" as="targetPoint" />
          </mxGeometry>
        </mxCell>
        <mxCell id="Sc3b0XzNrHB7zEq938ID-45" value="" style="endArrow=none;html=1;rounded=0;entryX=0;entryY=0.5;entryDx=0;entryDy=0;exitX=1;exitY=0;exitDx=0;exitDy=0;" edge="1" parent="1" source="Sc3b0XzNrHB7zEq938ID-38" target="Sc3b0XzNrHB7zEq938ID-37">
          <mxGeometry width="50" height="50" relative="1" as="geometry">
            <mxPoint x="220" y="365" as="sourcePoint" />
            <mxPoint x="280" y="390" as="targetPoint" />
          </mxGeometry>
        </mxCell>
        <mxCell id="Sc3b0XzNrHB7zEq938ID-46" value="" style="endArrow=none;html=1;rounded=0;exitX=0;exitY=0;exitDx=0;exitDy=0;entryX=0.5;entryY=1;entryDx=0;entryDy=0;" edge="1" parent="1" source="Sc3b0XzNrHB7zEq938ID-40" target="Sc3b0XzNrHB7zEq938ID-37">
          <mxGeometry width="50" height="50" relative="1" as="geometry">
            <mxPoint x="230" y="375" as="sourcePoint" />
            <mxPoint x="330" y="400" as="targetPoint" />
          </mxGeometry>
        </mxCell>
        <mxCell id="Sc3b0XzNrHB7zEq938ID-47" value="" style="endArrow=none;html=1;rounded=0;entryX=0;entryY=0;entryDx=0;entryDy=0;exitX=1;exitY=0.75;exitDx=0;exitDy=0;" edge="1" parent="1" source="Sc3b0XzNrHB7zEq938ID-37" target="Sc3b0XzNrHB7zEq938ID-41">
          <mxGeometry width="50" height="50" relative="1" as="geometry">
            <mxPoint x="480" y="410" as="sourcePoint" />
            <mxPoint x="540" y="435" as="targetPoint" />
          </mxGeometry>
        </mxCell>
        <mxCell id="Sc3b0XzNrHB7zEq938ID-1" value="Gebruiker" style="rounded=1;whiteSpace=wrap;html=1;fontStyle=1" vertex="1" parent="1">
          <mxGeometry x="260" y="80" width="120" height="60" as="geometry" />
        </mxCell>
        <mxCell id="Sc3b0XzNrHB7zEq938ID-50" value="AdresID" style="ellipse;whiteSpace=wrap;html=1;" vertex="1" parent="1">
          <mxGeometry x="730" y="180" width="100" height="50" as="geometry" />
        </mxCell>
        <mxCell id="Sc3b0XzNrHB7zEq938ID-51" value="" style="endArrow=none;html=1;rounded=0;exitX=0.25;exitY=1;exitDx=0;exitDy=0;entryX=0.5;entryY=0;entryDx=0;entryDy=0;" edge="1" parent="1" source="Sc3b0XzNrHB7zEq938ID-12" target="Sc3b0XzNrHB7zEq938ID-50">
          <mxGeometry width="50" height="50" relative="1" as="geometry">
            <mxPoint x="900" y="165" as="sourcePoint" />
            <mxPoint x="900" y="200" as="targetPoint" />
          </mxGeometry>
        </mxCell>
        <mxCell id="Sc3b0XzNrHB7zEq938ID-52" value="" style="endArrow=none;html=1;rounded=0;entryX=0;entryY=0.5;entryDx=0;entryDy=0;exitX=1;exitY=0.5;exitDx=0;exitDy=0;" edge="1" parent="1" source="Sc3b0XzNrHB7zEq938ID-37" target="Sc3b0XzNrHB7zEq938ID-53">
          <mxGeometry width="50" height="50" relative="1" as="geometry">
            <mxPoint x="550" y="290" as="sourcePoint" />
            <mxPoint x="690" y="290" as="targetPoint" />
          </mxGeometry>
        </mxCell>
        <mxCell id="Sc3b0XzNrHB7zEq938ID-53" value="WorkoutID" style="ellipse;whiteSpace=wrap;html=1;" vertex="1" parent="1">
          <mxGeometry x="690" y="300" width="90" height="50" as="geometry" />
        </mxCell>
      </root>
    </mxGraphModel>
  </diagram>
</mxfile>
